<svg class="svg-icon" style="width: 1em; height: 1em;vertical-align: middle;fill: currentColor;overflow: hidden;" viewBox="0 0 1024 1024" version="1.1" xmlns="http://www.w3.org/2000/svg"><path d="M945.92 408.32h-330.24V78.08a46.08 46.08 0 0 0-46.08-46.08h-115.2a46.08 46.08 0 0 0-46.08 46.08v330.24H78.08a46.08 46.08 0 0 0-46.08 46.08v115.2a46.08 46.08 0 0 0 46.08 46.08h330.24v330.24a46.08 46.08 0 0 0 46.08 46.08h115.2a46.08 46.08 0 0 0 46.08-46.08v-330.24h330.24a46.08 46.08 0 0 0 46.08-46.08v-115.2a46.08 46.08 0 0 0-46.08-46.08z"  /></svg>