<svg width="1440" height="1024" viewBox="0 0 1440 1024" fill="none" xmlns="http://www.w3.org/2000/svg">
<path d="M332.5 1024L-36.5 825L-70 1070.5L332.5 1024Z" fill="#1D4994"/>
<path d="M332 750.804C866.927 816.153 1400.04 557.961 1545.38 465.667L1555.17 443.161C1598.48 423.97 1591.19 436.579 1545.38 465.667L1446.21 693.67C1104.25 822.197 631.114 841.632 332 750.804Z" fill="#1A1E75"/>
<path d="M535 1173.5C465.5 1075 32.5 1010.5 -66 760L-10 666L455.5 978L535 1173.5Z" fill="#1A68AA"/>
<path d="M-24.8068 523.482C-25.0386 523.155 -25.2696 522.827 -25.5 522.5C-25.5 522.5 -25.2358 522.778 -24.8068 523.482C133.935 747.72 625.338 994.047 1199 1026L685.5 1069.5C442.5 1101.5 -45.5 776 -26.7077 658.5C-10.2188 555.402 -21.7357 528.523 -24.8068 523.482Z" fill="#1D80C1"/>
<path d="M178 693.5C750.53 949.856 1571.27 715.875 1710.25 546.558L1730 493C1732.79 509.529 1725.77 527.64 1710.25 546.558L1610.5 817C1503.5 900 814.5 1048 178 693.5Z" fill="#B4B2B3"/>
</svg>
