<svg class="svg-icon" style="width: 1em; height: 1em;vertical-align: middle;fill: currentColor;overflow: hidden;" viewBox="0 0 1024 1024" version="1.1" xmlns="http://www.w3.org/2000/svg"><path d="M211.7 329.6l0 543.2c0 32.8 26.6 59.4 59.4 59.4l481.8 0c32.8 0 59.4-26.6 59.4-59.4L812.3 329.6 211.7 329.6zM391.2 810.3 271.8 810.3 271.8 451.7l119.5 0L391.3 810.3zM572.3 810.3 452.8 810.3 452.8 451.7l119.5 0L572.3 810.3zM752.2 810.3 632.8 810.3 632.8 451.7l119.5 0L752.3 810.3z"  /><path d="M872.8 268.2 151.2 268.2 151.2 151.9l182.2 0 0-0.7c0-32.8 26.6-59.4 59.4-59.4L631 91.8c32.8 0 59.4 26.6 59.4 59.4l0 0.7 182.2 0L872.8 268.2 872.8 268.2z"  /></svg>